<?xml version="1.0" encoding="UTF-8"?>
<svg id="_レイヤー_1" data-name="レイヤー 1" xmlns="http://www.w3.org/2000/svg" viewBox="0 0 513.8 215.57">
  <defs>
    <style>
      .cls-1 {
        fill: #fff;
      }

      .cls-2 {
        fill: #71c7d5;
      }

      .cls-3 {
        fill: #4d4c4d;
      }
    </style>
  </defs>
  <path class="cls-3" d="m0,87.83V.42C1.17-.24,2.44.07,3.66.07c107.67-.02,215.33-.02,323,0,1.12,0,2.24-.15,3.34.19.93.83,1.02,1.96,1.03,3.08.06,10.67.09,21.34-.02,32.02,0,.75-.15,1.48-.52,2.15-1.29,1.61-3.14,1.18-4.84,1.31-3.95.3-7.95-.65-11.84.58-1.4,2.62-.8,5.33-.4,8.03,1.77,3.75,4.56,6.82,7,10.1,19.32,26.09,38.51,52.28,57.86,78.35,3.04,4.09,3.09,4.02,6.33.08,17.84-21.72,35.63-43.48,53.55-65.13.8-.96,1.57-1.93,2.05-3.1.39-9.25.64-18.49-.16-27.71-.28-.3-.57-.58-.92-.8-6.17-.89-12.35-.13-18.52-.39-1.7-.07-3.51.3-4.91-1.12-.71-1.12-.66-2.38-.66-3.62-.03-9.94-.03-19.89,0-29.83,0-1.35-.1-2.76.91-3.89,1.2-.51,2.46-.27,3.69-.27,29.99-.01,59.98-.01,89.97-.01,4.1,0,4.12,0,4.11,3.95-.04,11.18.11,22.36-.07,33.53-1.16,1.56-2.88,1.23-4.45,1.25-5.22.06-10.45,0-15.67.03-1.47,0-3.04-.27-4.07,1.21-.75,1.41-.47,2.94-.47,4.41-.01,42.39-.01,84.78,0,127.16,0,1.47-.26,3,.52,4.37,1.05,1.43,2.61,1.17,4.06,1.18,5.17.02,10.34-.03,15.51.03,1.56.02,3.25-.29,4.5,1.09.12,12.43.52,24.86-.21,37.29h-97.29c-.91-.99-1.03-2.21-1.03-3.47-.03-10.27-.04-20.53,0-30.8,0-.99.06-1.98.59-2.87,1.32-1.55,3.16-1.18,4.86-1.24,6.2-.21,12.41.36,18.58-.34.32-.23.63-.47.9-.76.34-.54.51-1.13.5-1.76-.14-10.02.38-20.04-.28-30.01-2.85,1.37-4.16,4.21-5.98,6.45-16.8,20.56-33.83,40.94-50.5,61.61-1.03,1.28-2.08,2.44-3.55,3.19h-.75c-1.68-.96-2.69-2.56-3.79-4.05-20-27.25-40.15-54.39-60.24-81.58-.64-.87-.83-2.35-2.38-2.26.2,14.76.04,29.48.11,44.2,0,1.46-.31,2.99.6,4.32,1.07,1.19,2.5.95,3.85.96,4.73.02,9.46-.02,14.19.02,1.59.02,3.28-.23,4.59,1.06.8,1.23.69,2.62.7,3.98.02,9.7.02,19.4,0,29.1,0,1.49.08,3.01-1.04,4.23h-112.25c-.81-.89-1.01-1.97-1.02-3.12-.05-10.58-.08-21.15.02-31.73,0-.75.14-1.49.48-2.16,1.22-1.65,3.05-1.34,4.73-1.36,5.65-.07,11.3.02,16.91-.06-1.66-3.83-4.79-6.54-7.38-9.58-15.33-17.98-30.64-35.99-45.9-54.02-1.44-1.7-2.97-3.34-4.47-5-.06-.07-.24-.09-.33-.05-.1.05-.15.19-.21.33.09,20.89.02,41.74.06,62.59,0,1.59-.34,3.24.56,4.72,1.02,1.22,2.42,1.03,3.76,1.04,4.55.02,9.09-.02,13.64.02,1.57.02,3.23-.21,4.53,1.06.79,1.23.69,2.62.69,3.98.02,9.7.02,19.4,0,29.1,0,1.49.08,3.01-1.04,4.23H35.17c-.91-.99-1.03-2.21-1.03-3.47-.03-10.27-.04-20.53,0-30.8,0-1.12.07-2.23.78-3.19,1.48-1.21,3.27-.93,4.97-.94,8.39-.04,16.78,0,25.17-.03,15.63.03,31.27,0,46.9,0,7.21.04,14.43.02,21.64,0,1.47,0,3.04.28,4.06-1.22.73-1.42.46-2.94.46-4.41.01-42.38.01-84.76,0-127.14,0-1.47.26-2.99-.51-4.37-1.05-1.45-2.62-1.18-4.08-1.18-7.17-.01-14.34-.02-21.51,0-15.56-.02-31.12,0-46.68,0-8.43-.04-16.86-.02-25.29,0-1.46,0-3.03-.27-4.08,1.17-.77,1.4-.5,2.92-.5,4.38-.02,12.75,0,25.49-.03,38.24,0,1.82.34,3.74-.86,5.39-1.05.84-2.31.85-3.55.85-9.06.04-18.13.03-27.19,0-1.37,0-2.75-.02-3.85-1.04Z"/>
  <path class="cls-1" d="m248.87,44.04c-2.4,2.78-4.69,5.66-7.22,8.31-7.27,7.63-14.75,15.07-21.93,22.79-8.76,9.43-17.55,18.83-26.55,28.04-2.13,2.18-3.78,4.82-6.34,6.59-.54-.78-.35-1.68-.36-2.53,0-20.35,0-40.7,0-61.05,0-.74-.08-1.49.25-2.2.8-.5,1.69-.33,2.55-.33,19.03,0,38.06,0,57.08,0,.85,0,1.75-.2,2.52.38Z"/>
  <path class="cls-1" d="m276.55,156.13c-4.85-5.53-9.76-11.01-14.54-16.6-5.02-5.87-9.93-11.84-14.89-17.78-1.02-1.22-1.94-2.52-3-3.7-5.33-5.96-5.37-5.98.2-11.51,11-10.9,20.95-22.82,32.21-33.48,2.43.54,1.14,2.49,1.14,3.65.1,24.51.07,49.02.07,73.52,0,1.49.02,2.99-.01,4.48-.01.77-.07,1.54-1.18,1.42Z"/>
  <path class="cls-2" d="m65.84,177.34c0-46.23,0-92.46,0-138.69,13.88-.04,27.75-.08,41.63-.14,1.61,0,3.21-.1,4.82-.15,0,0-.04.26-.04.26.67,1.16.35,2.44.35,3.66.02,43.81.02,87.62,0,131.43,0,1.22.32,2.49-.35,3.66,0,0,.04.26.04.26-13.75-.05-27.5-.1-41.25-.16-1.73,0-3.46-.08-5.2-.13Z"/>
</svg>